# xmcd
#
# Track frame offsets:
#	150
#	11908
#	27426
#	36877
#	48877
#	61875
#	72262
#	82561
#	100536
#	113376
#	124259
#
# Disc length: 1869 seconds
# Revision: 0
# Processed by: cddbd v1.5.2PL0 Copyright (c) Steve Scherf et al.
# Submitted via: dBpowerAMP V12.0
#
DISCID=7d074b0b
DTITLE=The Garrett Newton Band - Bluegrass Barn
DYEAR=2019
DGENRE=Bluegrass
TTITLE0=Take Me Home To Momma
TTITLE1=Bluegrass Barn
TTITLE2=Charlotte Breakdown
TTITLE3=You Don't Have To Be A Baby To Cry
TTITLE4=Back To Hancock County
TTITLE5=Let The Church Roll On
TTITLE6=Daybreak In Dixie
TTITLE7=Family Graveyard
TTITLE8=No More Painting Up This Town
TTITLE9=The Boys Are Back In Town
TTITLE10=Leaning On The Everlasting Arms
EXTD=
EXTT0=
EXTT1=
EXTT2=
EXTT3=
EXTT4=
EXTT5=
EXTT6=
EXTT7=
EXTT8=
EXTT9=
EXTT10=
PLAYORDER=
